<?xml version="1.0" encoding="utf-8"?>
<!-- Generator: Adobe Illustrator 22.0.1, SVG Export Plug-In . SVG Version: 6.00 Build 0)  -->
<svg version="1.1" id="Capa_1" xmlns="http://www.w3.org/2000/svg" xmlns:xlink="http://www.w3.org/1999/xlink" x="0px" y="0px"
	 viewBox="0 0 56.6 56.6" style="enable-background:new 0 0 56.6 56.6;" xml:space="preserve">
<style type="text/css">
	.st0{fill:#CB9831;}
</style>
<g>
	<path class="st0" d="M31,21.4C31,21.4,31,21.4,31,21.4L31,21.4L0.1,52.4l4.2,4.2l40.3-40.3L40.4,12L31,21.4z M4.3,53.8l-1.4-1.4
		l28.8-28.8l1.4,1.4L4.3,53.8z M34.6,23.5l-1.4-1.4l7.3-7.3l1.4,1.4L34.6,23.5z"/>
	<path class="st0" d="M40.5,9c0.6,0,1-0.4,1-1V1c0-0.6-0.4-1-1-1s-1,0.4-1,1v7C39.5,8.6,40,9,40.5,9z"/>
	<path class="st0" d="M40.5,23c-0.6,0-1,0.4-1,1v7c0,0.6,0.4,1,1,1s1-0.4,1-1v-7C41.5,23.4,41.1,23,40.5,23z"/>
	<path class="st0" d="M55.5,15h-7c-0.6,0-1,0.4-1,1c0,0.6,0.4,1,1,1h7c0.6,0,1-0.4,1-1S56.1,15,55.5,15z"/>
	<path class="st0" d="M25.5,17h7c0.6,0,1-0.4,1-1s-0.4-1-1-1h-7c-0.6,0-1,0.4-1,1C24.5,16.6,25,17,25.5,17z"/>
	<path class="st0" d="M46.5,11c0.3,0,0.5-0.1,0.7-0.3l5-4.9c0.4-0.4,0.4-1,0-1.4s-1-0.4-1.4,0l-5,4.9c-0.4,0.4-0.4,1,0,1.4
		C46,10.9,46.2,11,46.5,11z"/>
	<path class="st0" d="M47.2,21.3c-0.4-0.4-1-0.4-1.4,0s-0.4,1,0,1.4l5,4.9c0.2,0.2,0.5,0.3,0.7,0.3s0.5-0.1,0.7-0.3
		c0.4-0.4,0.4-1,0-1.4L47.2,21.3z"/>
	<path class="st0" d="M33.8,10.7c0.2,0.2,0.5,0.3,0.7,0.3s0.5-0.1,0.7-0.3c0.4-0.4,0.4-1,0-1.4l-5-4.9c-0.4-0.4-1-0.4-1.4,0
		s-0.4,1,0,1.4L33.8,10.7z"/>
</g>
</svg>
