<svg xmlns="http://www.w3.org/2000/svg" viewBox="0 0 489 611.19"><defs><style>.cls-1{font-size:535.07px;}.cls-1,.cls-4{fill:#fff;font-family:KronaOne-Regular, Krona One;}.cls-1,.cls-2,.cls-3,.cls-4{stroke:#000;stroke-miterlimit:10;}.cls-2,.cls-3{fill:#cb9831;}.cls-2{stroke-width:2px;}.cls-4{font-size:62.34px;}</style></defs><title>New</title><g id="Layer_2" data-name="Layer 2"><g id="Layer_1-2" data-name="Layer 1"><text class="cls-1" transform="translate(0.5 472.22)">R</text><path class="cls-2" d="M400.07,421c2,8.36,1.48,18.67,0,30.06-.87-.2-3.63,9.35-6.39,21h50.87l-43.08-63.37C401.71,412.91,401.59,417.09,400.07,421Z"/><path class="cls-2" d="M355.1,310.34l-10.61,5.3c-6.88,13.33-13.84,18.51-22.19,45.76-4,13-3.61,24-4.79,33.49l3.2,6.38h4.77l3.2-6.38c7.09-25,4-13.63,10.5-24.44l17.68-3.54c3.39,11.74,9.67,1.26,14.87,24.79a24.22,24.22,0,0,0,4.77,9.57l4.79-4.79,3.18-8c0-2.61-.1-5.18-.3-7.73l-26.55-39.05c5.15-2,10.05-4.12,14.76-6.43-2.09-5.66-4.34-11.58-6.68-17.9C364.46,311.67,359.9,313.52,355.1,310.34Z"/><path class="cls-2" d="M220.5,283.15l-76.09,0a.64.64,0,0,1-.64-.64V136.87a.64.64,0,0,1,.65-.64l68.79.92a.63.63,0,0,0,.49-.22c3.66-4.21,8.13-11.66,12.68-14.7a.59.59,0,0,0,.2-.22c15.29-29.63,38.18-45.35,63-55.32a.64.64,0,0,0-.19-1.24c-7.11-.39-14.45-.61-22.06-.61L60.14,64.15a.64.64,0,0,0-.64.64V471.51a.64.64,0,0,0,.64.64h80.74a.64.64,0,0,0,.64-.62l3-114.76a.64.64,0,0,1,.63-.62l122.38-1h.85c.07,0,1.15,1,.09-.13-1.47-1.56-9.84-21.56-21.94-39.87-11.06-16.74-26-32-26-32"/><path class="cls-3" d="M393,225.65c-1.17,2.85-1.75,16.57-4.95,15a15.76,15.76,0,0,0-6.38-1.61L383.28,255c3,1.08,4.41,1.55,11.41,3.59h.38c.63-.1,4.28.56,4,.28,11-2.91,27.46-2.94,40.86-6.28.26-.89.53-1.78.77-2.68a163.78,163.78,0,0,0,5.38-39.69c-10.86,3.58-26.57,14.34-40.49,22.46C400.69,232.4,397.67,234.86,393,225.65Z"/><text class="cls-4" transform="translate(49.17 540.89) scale(1.09 1)">STUDIOS</text></g></g></svg>